<?xml version="1.0" standalone="no"?>
<svg viewBox="0 0 200 200" xmlns="http://www.w3.org/2000/svg">
  <path fill="#FF0066" d="M35.1,-58.8C46.8,-54.1,58.5,-47.3,68.4,-37.2C78.3,-27,86.3,-13.5,84.6,-1C82.8,11.5,71.3,23,61.4,33.1C51.5,43.1,43.2,51.8,33.2,59.9C23.3,68,11.6,75.6,-1.2,77.7C-14.1,79.9,-28.2,76.5,-39,68.9C-49.8,61.3,-57.4,49.4,-64.8,37.2C-72.1,25,-79.3,12.5,-82.6,-1.9C-86,-16.4,-85.5,-32.7,-77.3,-43.5C-69.1,-54.2,-53.1,-59.3,-39,-62.5C-24.8,-65.8,-12.4,-67.2,-0.3,-66.6C11.7,-66,23.4,-63.4,35.1,-58.8Z" transform="translate(100 100)" />
</svg>
