<?xml version="1.0" encoding="iso-8859-1"?>
<!-- Uploaded to: SVG Repo, www.svgrepo.com, Generator: SVG Repo Mixer Tools -->
<svg height="800px" width="800px" version="1.1" id="Layer_1" xmlns="http://www.w3.org/2000/svg" xmlns:xlink="http://www.w3.org/1999/xlink" 
	 viewBox="0 0 512 512" xml:space="preserve">
<g>
	<path style="fill:#CFF09E;" d="M399.499,19.108c-44.463-11.872-93.87-0.372-128.752,34.51s-46.383,84.289-34.51,128.752
		c44.463,11.872,93.87,0.372,128.752-34.51S411.372,63.572,399.499,19.108z"/>
	<path style="fill:#CFF09E;" d="M314.021,497.415c83.752,0,151.645-67.893,151.645-151.645H162.375
		C162.375,429.521,230.268,497.415,314.021,497.415z"/>
</g>
<path style="fill:#507C5C;" d="M465.666,331.184H318.209c-0.004,0-0.01,0-0.015,0h-8.35c-0.004,0-0.01,0-0.015,0H162.375
	c-8.055,0-14.585,6.53-14.585,14.585c0,42.133,15.764,80.645,41.694,109.975c-73.811-18.79-128.564-85.816-128.564-165.392
	c0-90.154,70.274-164.19,158.919-170.239c-1.893,9.876-2.786,19.956-2.643,30.082c-5.5-2.878-12.452-2.007-17.072,2.615
	c-5.696,5.696-5.696,14.931,0,20.628l12.031,12.031l-11.859,11.859c-5.696,5.696-5.696,14.931,0,20.628
	c2.849,2.849,6.581,4.272,10.313,4.272c3.732,0,7.466-1.424,10.313-4.272l11.859-11.859l12.031,12.031
	c2.849,2.849,6.581,4.272,10.313,4.272c3.732,0,7.466-1.424,10.313-4.272c4.516-4.516,5.436-11.253,2.792-16.691
	c0.839,0.015,1.677,0.041,2.516,0.041c0.004,0,0.004,0,0.009,0c31.165,0,60.857-9.588,85.718-27.355
	c29.198,31.431,45.738,73.127,45.738,116.228c0,8.056,6.53,14.585,14.585,14.585s14.585-6.53,14.585-14.585
	c0-50.169-19.127-98.715-52.933-135.438c34.872-37.098,48.336-90.14,35.136-139.569c-1.346-5.044-5.286-8.982-10.329-10.329
	C390.795,1.688,377.916,0,364.983,0c-39.494,0-76.624,15.379-104.549,43.304c-13.726,13.726-24.374,29.84-31.678,47.264
	C119.868,92.08,31.749,181.111,31.749,290.352c0,110.181,89.639,199.819,199.819,199.819c0.055,0,0.109-0.007,0.165-0.009
	C256.01,504.052,284.103,512,314.021,512c91.66,0,166.231-74.571,166.231-166.231C480.251,337.714,473.72,331.184,465.666,331.184z
	 M281.061,63.932c22.416-22.416,52.22-34.761,83.923-34.761c7.507,0,14.991,0.707,22.342,2.108
	c7.3,38.392-4.822,78.439-32.651,106.267c-22.416,22.418-52.217,34.761-83.915,34.761c-0.001,0-0.004,0-0.007,0
	c-7.509,0-14.992-0.707-22.342-2.108C241.11,131.808,253.232,91.761,281.061,63.932z M274.625,360.355l-69.088,69.088
	c-15.106-19.539-25.062-43.253-27.807-69.088H274.625z M225.735,450.499l88.285-88.285l88.285,88.285
	c-23.868,20.151-54.675,32.33-88.285,32.33C280.41,482.829,249.603,470.652,225.735,450.499z M422.502,429.443l-69.088-69.088
	h96.895C447.564,386.191,437.608,409.904,422.502,429.443z"/>
</svg>